<svg width="30" height="30" viewBox="0 0 30 30" fill="none" xmlns="http://www.w3.org/2000/svg">
<g clip-path="url(#clip0_1_2)">
<path d="M12.6902 19.7582C12.292 19.7582 11.9666 20.0793 11.9666 20.4817V22.6653C11.9666 23.0635 12.2878 23.3888 12.6902 23.3888C13.0926 23.3888 13.4137 23.0678 13.4137 22.6653V20.4817C13.4094 20.0793 13.0883 19.7582 12.6902 19.7582Z" fill="#444444" stroke="#444444" stroke-width="0.00064"/>
<path d="M23.3467 8.48947V2.71812C23.2696 1.92602 22.5589 1.93887 22.3234 2.06305L11.076 7.3206H4.13581C3.73764 7.3206 3.41226 7.64174 3.41226 8.04415V16.7398C3.41226 17.138 3.7334 17.4634 4.13581 17.4634H4.78657L6.78171 27.422C6.85019 27.7603 7.14563 28 7.48816 28H11.4613H11.4657C11.8638 28 12.1892 27.6789 12.1892 27.2765C12.1892 27.1951 10.2283 17.4591 10.2283 17.4591H11.0717L22.3148 22.7168C23.1668 22.9266 23.3381 22.3057 23.3381 22.0617V16.2903C25.1877 15.9478 26.5877 14.3294 26.5877 12.3856C26.5963 10.4461 25.1962 8.832 23.3467 8.48947ZM10.5794 26.5528H8.08329L6.25943 17.4591H8.75551L10.5794 26.5528ZM10.6565 16.0162H4.85936V8.76346H10.6564L10.6565 16.0162ZM21.9038 20.9228L12.1036 16.3416V14.0639H12.399C12.7972 14.0639 13.1226 13.7427 13.1226 13.3403C13.1226 12.9421 12.8015 12.6168 12.399 12.6168H12.1036V11.1739H13.8418C14.24 11.1739 14.5653 10.8528 14.5653 10.4504C14.5653 10.0522 14.2442 9.72682 13.8418 9.72682H12.1036V8.42523L21.9038 3.84407V20.9228ZM23.3467 14.8132V9.97087C24.3913 10.2834 25.1534 11.251 25.1534 12.3899C25.1534 13.533 24.3913 14.5006 23.3467 14.8132Z" fill="#444444" stroke="#444444" stroke-width="0.00064"/>
</g>
<defs>
<clipPath id="clip0_1_2">
<rect width="26" height="26" fill="white" transform="translate(2 2)"/>
</clipPath>
</defs>
</svg>
